<?xml version="1.0" encoding="utf-8"?>
<!-- Generator: Adobe Illustrator 20.1.0, SVG Export Plug-In . SVG Version: 6.00 Build 0)  -->
<svg version="1.1" id="Layer_1" xmlns="http://www.w3.org/2000/svg" xmlns:xlink="http://www.w3.org/1999/xlink" x="0px" y="0px"
	 viewBox="0 0 542.4 113.6" style="enable-background:new 0 0 542.4 113.6;" xml:space="preserve">
<style type="text/css">
	.st0{fill: var(--logo-color, #152030);}
</style>
<g>
	<polygon class="st0" points="274.3,55.6 256.9,27.5 239.4,55.6 256.9,55.6 	"/>
	<polygon class="st0" points="273.9,112.9 256.9,85 221.4,85 204.5,112.9 	"/>
	<polygon class="st0" points="205.5,0 205.5,0 170.9,0 170.9,0 137.5,0 137.5,0 102.9,0 102.9,0 69.5,0 0.2,112.7 0,113 33.7,113 
		86.5,26.9 121,26.9 68,113 101.7,113 154.5,26.9 189,26.9 136.2,112.7 136,113 169.7,113 238.9,0 	"/>
	<polygon class="st0" points="377.3,113 342.4,56.5 377.1,0 376.9,0 343.5,0 325.6,29.2 307.5,0 274.1,0 308.8,56.5 273.9,112.9 
		307.6,113 325.5,83.8 343.5,113 	"/>
</g>
<g>
	<path class="st0" d="M446.6,113h-12.5v-5.2h1.6V96.7c0-2.7-0.5-4.6-1.4-5.7c-0.9-1.1-2.3-1.7-4-1.7c-2.2,0-3.8,0.8-4.9,2.3
		s-1.6,3.2-1.6,5.2v11h4.2v5.2h-12.5v-5.2h1.5V96.7c0-2.7-0.5-4.6-1.4-5.7c-0.9-1.1-2.3-1.7-3.9-1.7c-2.2,0-3.8,0.7-4.8,2.2
		c-1,1.5-1.6,3.2-1.6,5.1v11.1h5.3v5.2h-16.2v-5.2h4.2V89.9h-4.2v-5.2h10.9v4.7c0.9-1.6,2.1-2.8,3.5-3.8c1.5-1,3.2-1.4,5.3-1.4
		c2.1,0,4,0.5,5.7,1.5c1.7,1,2.9,2.6,3.5,4.8c0.8-1.9,2.1-3.5,3.6-4.6s3.5-1.7,5.8-1.7c2.6,0,4.8,0.8,6.7,2.5
		c1.9,1.6,2.9,4.2,2.9,7.7v13.5h4.2V113z"/>
	<path class="st0" d="M451.9,86.8c2.1-1,4-1.7,5.6-2.1c1.6-0.4,3.5-0.6,5.7-0.6c3.1,0,5.7,0.8,7.8,2.4c2,1.6,3.1,4,3.1,7.2v12.7
		c0,1.7,0.7,2.5,2.1,2.5c0.4,0,0.9-0.1,1.4-0.3l0.1,3.7c-1.4,0.8-2.9,1.2-4.5,1.2c-3.6,0-5.5-1.9-5.8-5.6v-0.1c-0.8,1.5-2,2.8-3.6,4
		c-1.5,1.2-3.4,1.8-5.7,1.8c-2,0-3.9-0.6-5.8-1.8c-1.9-1.2-2.9-3.3-2.9-6.3c0-3.5,1.4-5.8,4.2-6.9c2.8-1.1,5.8-1.7,9-1.7
		c0.8,0,1.6,0,2.5,0.1c0.8,0,1.6,0.1,2.3,0.2v-1.6c0-1.7-0.3-3.2-0.9-4.5c-0.6-1.3-2.1-2-4.4-2c-0.9,0-1.7,0.1-2.5,0.2
		c-0.8,0.1-1.5,0.4-2.2,0.8l-1.1,4.3l-5.4-0.6L451.9,86.8z M467.3,101.8v-1c-0.7-0.1-1.4-0.2-2.2-0.3c-0.8-0.1-1.5-0.1-2.3-0.1
		c-1.7,0-3.2,0.3-4.5,0.9c-1.3,0.6-2,1.8-2,3.5c0,2.6,1.4,3.8,4.1,3.8c1.6,0,3.1-0.6,4.5-1.7C466.3,105.7,467.1,104,467.3,101.8z"/>
	<path class="st0" d="M513,113h-10.9v-5.4c-0.8,1.6-2,3.1-3.6,4.2c-1.6,1.2-3.6,1.8-6.2,1.8c-3.7,0-6.6-1.3-8.8-3.8
		c-2.2-2.5-3.2-6-3.2-10.4c0-4,1-7.6,3.1-10.7s5.2-4.6,9.6-4.6c2.2,0,4.1,0.5,5.6,1.4c1.5,0.9,2.7,2.1,3.6,3.6V74.8h-6.1v-5.2h12.8
		v38.1h4.2V113z M502.2,99.4v-2.1c0-2.3-0.8-4.2-2.1-5.6s-3.1-2.1-5.1-2.1c-2.3,0-4.1,0.8-5.5,2.5c-1.4,1.7-2.1,4-2.1,7
		c0,3,0.7,5.2,2.1,6.8c1.4,1.6,3.1,2.3,5.1,2.3c2.3,0,4.2-0.9,5.5-2.8C501.4,103.5,502.1,101.5,502.2,99.4z"/>
	<path class="st0" d="M542.4,104.3c-0.3,2.5-1.5,4.6-3.6,6.5c-2.2,1.8-5.2,2.8-9,2.8c-4.1,0-7.5-1.2-10.1-3.6s-4-6-4-10.7
		c0-4.3,1.2-7.9,3.6-10.8c2.4-2.9,5.8-4.3,10.1-4.3c3.9,0,7,1.2,9.3,3.5c2.3,2.3,3.4,5.3,3.5,8.8c0,1.2-0.1,2.4-0.4,3.8h-19.1
		c0.4,5.3,2.9,7.9,7.5,7.9c2.2,0,3.7-0.5,4.7-1.6c0.9-1,1.6-2.2,1.9-3.3L542.4,104.3z M535.2,96.1c0.2-1.7-0.2-3.3-1.2-4.7
		c-0.9-1.5-2.5-2.2-4.7-2.2c-2,0-3.5,0.7-4.6,2c-1,1.3-1.7,3-2,5H535.2z"/>
</g>
</svg>
